# xmcd
#
# Track frame offsets:
#	150
#	13134
#	28030
#	43128
#	57326
#	73580
#	94013
#	112301
#	131307
#	148551
#	163686
#	178007
#	195316
#	211713
#	223399
#
# Disc length: 3134 seconds
#
# Revision: 1
# Processed by: cddbd v1.5.2PL0 Copyright (c) Steve Scherf et al.
# Submitted via: audiograbber 1.83.01
#
DISCID=df0c3c0f
DTITLE=Various Artist - Ultimate Country Collection
DYEAR=2009
DGENRE=Country
TTITLE0=Alan Jackson - Don't Rock The Jukebox
TTITLE1=Bob Dylan - Lay Lady Lay
TTITLE2=Brad Paisley - Me Neither
TTITLE3=Kenny Chesney - How Forever Feels
TTITLE4=Martina McBride - A Broken Wing
TTITLE5=Kris Kristofferson - Sunday Mornin' Comin' Down
TTITLE6=Mary Chapin Carpenter - He Thinks He'll Keep Her
TTITLE7=Phil Vassar - I'm Alright
TTITLE8=Ray Price - For The Good Times
TTITLE9=Ricky Van Shelton - Somebody Lied
TTITLE10=Rosanne Cash - Tennessee Flat Top Box
TTITLE11=Willie Nelson - Seven Spanish Angels
TTITLE12=Vince Gill - Oklahoma Bordeline
TTITLE13=Patsy Cline - Walkin' After Midnight
TTITLE14=Charlie Rich - The Most Beautiful Girl
EXTD=
EXTT0=
EXTT1=
EXTT2=
EXTT3=
EXTT4=
EXTT5=
EXTT6=
EXTT7=
EXTT8=
EXTT9=
EXTT10=
EXTT11=
EXTT12=
EXTT13=
EXTT14=
PLAYORDER=
